HIERARCHY
ROOT Hips
{
	OFFSET 0.00000 0.00000 0.00000
	CHANNELS 6 Xposition Yposition Zposition Zrotation Yrotation Xrotation 
	JOINT LHipJoint
	{
		OFFSET 0 0 0
		CHANNELS 3 Zrotation Yrotation Xrotation
		JOINT LeftHip
		{
			OFFSET 1.28366 -1.58472 0.87544
			CHANNELS 3 Zrotation Yrotation Xrotation
			JOINT LeftKnee
			{
				OFFSET 2.18587 -6.00562 0.00000
				CHANNELS 3 Zrotation Yrotation Xrotation
				JOINT LeftAnkle
				{
					OFFSET 2.39085 -6.56880 0.00000
					CHANNELS 3 Zrotation Yrotation Xrotation
					JOINT LeftToe
					{
						OFFSET 0.12003 -0.32979 2.03101
						CHANNELS 3 Zrotation Yrotation Xrotation
						End Site
						{
							OFFSET 0.00000 -0.00000 1.04074
						}
					}
				}
			}
		}
	}
	JOINT RHipJoint
	{
		OFFSET 0 0 0
		CHANNELS 3 Zrotation Yrotation Xrotation
		JOINT RightHip
		{
			OFFSET -1.21795 -1.58472 0.87544
			CHANNELS 3 Zrotation Yrotation Xrotation
			JOINT RightKnee
			{
				OFFSET -2.22714 -6.11902 0.00000
				CHANNELS 3 Zrotation Yrotation Xrotation
				JOINT RightAnkle
				{
					OFFSET -2.40306 -6.60235 0.00000
					CHANNELS 3 Zrotation Yrotation Xrotation
					JOINT RightToe
					{
						OFFSET -0.15519 -0.42640 1.91430
						CHANNELS 3 Zrotation Yrotation Xrotation
						End Site
						{
							OFFSET -0.00000 -0.00000 0.99082
						}
					}
				}
			}
		}
	}
	JOINT lowerback
	{
		OFFSET 0 0 0
		CHANNELS 3 Zrotation Yrotation Xrotation
		JOINT Chest
		{
			OFFSET 0.01180 1.76430 -0.06387
			CHANNELS 3 Zrotation Yrotation Xrotation
			JOINT Chest2
			{
				OFFSET -0.00388 1.74651 0.09536
				CHANNELS 3 Zrotation Yrotation Xrotation
				JOINT lowerneck
				{
					OFFSET 0 0 0
					CHANNELS 3 Zrotation Yrotation Xrotation
					JOINT Neck
					{
						OFFSET 0.04111 1.46174 0.14397
						CHANNELS 3 Zrotation Yrotation Xrotation
						JOINT Head
						{
							OFFSET 0.00502 1.44580 -0.31711
							CHANNELS 3 Zrotation Yrotation Xrotation
							End Site
							{
								OFFSET -0.00395 1.49251 -0.12327
							}
						}
					}
				}
				JOINT LeftCollar
				{
					OFFSET 0 0 0
					CHANNELS 3 Zrotation Yrotation Xrotation
					JOINT LeftShoulder
					{
						OFFSET 2.70917 1.34870 -0.15417
CHANNELS 3 Zrotation Xrotation Yrotation
						JOINT LeftElbow
						{
OFFSET 0 -4.466100 -0.000000
CHANNELS 3 Zrotation Xrotation Yrotation
							JOINT LeftWrist
							{
OFFSET 0 -3.414140 0.000000
CHANNELS 3 Zrotation Xrotation Yrotation
								JOINT lhand
								{
									OFFSET 0 0 0
CHANNELS 3 Zrotation Xrotation Yrotation
									JOINT LFingers
									{
OFFSET 0 -0.328300 0.000000
CHANNELS 3 Zrotation Xrotation Yrotation
										End Site
										{
OFFSET 0 -0.264680 0.000000
										}
									}
								}
								JOINT LThumb
								{
OFFSET 0 0.000000 0.000000
CHANNELS 3 Zrotation Xrotation Yrotation
									End Site
									{
OFFSET 0 -0.268720 0.268720
									}
								}
							}
						}
					}
				}
				JOINT RightCollar
				{
					OFFSET 0 0 0
					CHANNELS 3 Zrotation Yrotation Xrotation
					JOINT RightShoulder
					{
						OFFSET -3.06316 1.13725 -0.10883
CHANNELS 3 Zrotation Xrotation Yrotation
						JOINT RightElbow
						{
OFFSET 0 -4.404310 0.000000
CHANNELS 3 Zrotation Xrotation Yrotation
							JOINT RightWrist
							{
OFFSET 0 -3.046880 0.000000
CHANNELS 3 Zrotation Xrotation Yrotation
								JOINT rhand
								{
									OFFSET 0 0 0
CHANNELS 3 Zrotation Xrotation Yrotation
									JOINT RFingers
									{
OFFSET 0 -0.500490 0.000000
CHANNELS 3 Zrotation Xrotation Yrotation
										End Site
										{
OFFSET 0 -0.403510 0.000000
										}
									}
								}
								JOINT RThumb
								{
OFFSET 0 0.000000 0.000000
CHANNELS 3 Zrotation Xrotation Yrotation
									End Site
									{
OFFSET 0 -0.409670 0.409670
									}
								}
							}
						}
					}
				}
			}
		}
	}
}
MOTION
Frames: 5
Frame Time: 0.008333333333333333
3.673900 12.433200 7.851600 -176.520000 4.480700 -174.880000 0.000000 0.000000 0.000000 -9.763400 30.378900 -55.285000 19.594500 19.996100 88.814400 3.734500 -2.813200 -35.994600 0.002000 0.287400 0.789600 0.000000 0.000000 0.000000 14.819500 -31.072500 -60.925200 -19.074300 -19.979400 87.292500 -2.412800 13.632000 -28.163900 -0.259100 -3.274700 9.044600 2.198900 2.931900 6.063000 -0.629900 4.310100 -5.648900 -2.503200 2.007300 -9.174800 -1.792900 -0.307200 -20.683400 8.352700 -3.136400 24.894700 2.845500 -0.826600 11.771900 0.000000 0.000000 0.000000 96.994900 -4.422100 -41.020000 41.483300 -48.924500 19.550100 8.920300 -23.917800 4.794800 0.000000 0.000000 0.000000 -7.125000 0.000000 0.000000 -13.238600 25.107900 -6.537400 0.000000 0.000000 0.000000 -87.201400 1.725500 43.964900 -38.142000 -46.929800 -17.069200 -13.189700 -19.504400 -19.409700 0.000000 0.000000 0.000000 7.125000 0.000000 -0.000000 9.761400 10.309900 7.976500
3.707047 12.486015 7.849284 -176.629225 4.265026 -174.855469 0.000000 0.000000 0.000000 -9.829780 30.014897 -54.882132 19.304032 19.988351 87.964772 3.683038 -2.581702 -35.786963 0.002337 0.310977 0.854480 0.000000 0.000000 0.000000 14.972512 -30.859049 -60.480956 -18.840073 -19.967671 86.606764 -2.487568 12.987891 -28.523995 -0.213424 -2.973974 8.206224 1.999898 2.943325 5.828679 -0.595601 4.313072 -5.703225 -2.343898 2.028864 -9.112126 -1.557279 -0.132613 -20.761652 8.372495 -2.961033 24.838110 2.840713 -0.718022 11.753223 0.000000 0.000000 0.000000 96.493156 -4.268857 -40.861523 41.342553 -48.845503 19.444110 9.043308 -23.748062 4.845455 0.000000 0.000000 0.000000 -7.125000 0.000000 0.000000 -13.143022 25.056761 -6.503870 0.000000 0.000000 0.000000 -87.002558 1.908569 43.798938 -37.948164 -46.806189 -16.927787 -13.646050 -19.198125 -19.671064 0.000000 0.000000 0.000000 7.125000 0.000000 0.000000 9.473324 9.999525 7.794645
3.730011 12.540997 7.844888 -176.692327 4.065045 -174.857327 0.000000 0.000000 0.000000 -9.895350 29.785965 -54.466678 19.012382 19.976596 87.111417 3.625997 -2.422939 -35.534256 0.001900 0.281609 0.773734 0.000000 0.000000 0.000000 15.101114 -30.686446 -59.987641 -18.585913 -19.952010 85.862283 -2.524929 12.492327 -28.695714 -0.194167 -2.837544 7.826819 1.859126 2.951620 5.600782 -0.541118 4.318047 -5.737103 -2.195370 2.048092 -9.028455 -1.403989 0.018511 -20.847921 8.479865 -2.837500 24.869623 2.876272 -0.632441 11.776419 0.000000 0.000000 0.000000 96.273265 -4.181529 -40.809001 41.123333 -48.721539 19.279212 8.820060 -23.453553 4.823765 0.000000 0.000000 0.000000 -7.125000 0.000000 0.000000 -13.309677 25.080362 -6.583196 0.000000 0.000000 0.000000 -86.890704 2.011863 43.683437 -37.918310 -46.787054 -16.906031 -12.540870 -18.869816 -18.902860 0.000000 0.000000 0.000000 7.125000 0.000000 0.000000 10.171913 10.882794 8.202211
3.738739 12.592726 7.840161 -176.719694 3.936556 -174.852815 0.000000 0.000000 0.000000 -9.993114 29.660256 -54.127189 18.753088 19.962724 86.352010 3.582640 -2.424268 -35.312611 0.004059 0.410321 1.127412 0.000000 0.000000 0.000000 15.187715 -30.500113 -59.529315 -18.339636 -19.933785 85.140252 -2.534120 12.145588 -28.724058 -0.192951 -2.828477 7.801639 1.814898 2.947890 5.421376 -0.481407 4.317478 -5.772846 -2.097751 2.057545 -8.969419 -1.076453 0.253784 -20.962832 8.406194 -2.605010 24.967461 2.833890 -0.501526 11.819196 0.000000 0.000000 0.000000 96.299522 -3.970027 -40.915100 41.034423 -48.670896 19.212415 8.791514 -23.515053 4.854547 0.000000 0.000000 0.000000 -7.125000 0.000000 0.000000 -13.327620 25.050223 -6.602130 0.000000 0.000000 0.000000 -86.966122 2.096180 43.832734 -37.766179 -46.689303 -16.795252 -12.338946 -18.365637 -18.952230 0.000000 0.000000 0.000000 7.125000 0.000000 0.000000 10.303435 10.852950 8.318285
3.735257 12.632889 7.837288 -176.706815 3.811787 -174.710604 0.000000 0.000000 0.000000 -10.144760 29.473174 -54.037039 18.565782 19.950610 85.803237 3.552689 -2.454229 -35.152174 0.005453 0.477084 1.310893 0.000000 0.000000 0.000000 15.342665 -30.379716 -59.393608 -18.153605 -19.918091 84.594557 -2.526720 11.883967 -28.666559 -0.185375 -2.773274 7.648065 1.808099 2.965230 5.245406 -0.390885 4.355331 -5.837002 -1.994770 2.084848 -8.941988 -0.480667 0.666347 -21.191513 8.051025 -2.090426 24.961809 2.686103 -0.240665 11.823384 0.000000 0.000000 0.000000 96.484815 -3.786313 -41.055803 41.226121 -48.779745 19.356507 8.865219 -23.849444 5.003834 0.000000 0.000000 0.000000 -7.125000 0.000000 0.000000 -13.258584 24.902519 -6.613064 0.000000 0.000000 0.000000 -87.284778 2.517840 43.943841 -38.145744 -46.932116 -17.071962 -12.645383 -18.281075 -19.367116 0.000000 0.000000 0.000000 7.125000 0.000000 0.000000 10.111943 10.407740 8.251768
